# xmcd
#
# Track frame offsets:
#	150
#	14956
#	34248
#	51067
#	72080
#	89275
#	106415
#	131343
#	145438
#	160035
#	177126
#	187418
#	200963
#	215553
#	229502
#	249261
#	260152
#	272067
#	286385
#	302041
#
# Disc length: 4236 seconds
#
# Revision: 0
# Processed by: cddbd v1.5.2PL0 Copyright (c) Steve Scherf et al.
# Submitted via: EZCDAudioConverter 4.0.5.1
#
DISCID=35108a14
DTITLE=Lacy J  Dalton - Highway Diner+Blue Eyed Blues
DYEAR=1986
DGENRE=Country
TTITLE0=Lacy J  Dalton - Working Class Man
TTITLE1=Lacy J  Dalton - 12:05
TTITLE2=Lacy J  Dalton - Changing All The Time
TTITLE3=Lacy J  Dalton - Taking It All In Stride
TTITLE4=Lacy J  Dalton - Can't See Me Without You
TTITLE5=Lacy J  Dalton - This Ol' Town
TTITLE6=Lacy J  Dalton - Up With The Wind
TTITLE7=Lacy J  Dalton - Boomtown
TTITLE8=Lacy J  Dalton - Gone Again
TTITLE9=Lacy J  Dalton - Closing Time
TTITLE10=Lacy J  Dalton - Have I Got A Heart For You
TTITLE11=Lacy J  Dalton and Bobby Bare - It's A Dirty Job
TTITLE12=Lacy J  Dalton - Blue Eyed Blues
TTITLE13=Lacy J  Dalton and George Jones - That's Good-That's Bad
TTITLE14=Lacy J  Dalton and David Allan Coe - Gotta Serve Somebody
TTITLE15=Lacy J  Dalton - I'll Love Them Whatever They Are
TTITLE16=Lacy J  Dalton - Hillbilly Girl With The Blues
TTITLE17=Lacy J  Dalton - 16TH Avenue
TTITLE18=Lacy J  Dalton - My Old Yellow Car
TTITLE19=Lacy J  Dalton and Earl Scruggs - Love Gone Cold
EXTD=
EXTT0=
EXTT1=
EXTT2=
EXTT3=
EXTT4=
EXTT5=
EXTT6=
EXTT7=
EXTT8=
EXTT9=
EXTT10=
EXTT11=
EXTT12=
EXTT13=
EXTT14=
EXTT15=
EXTT16=
EXTT17=
EXTT18=
EXTT19=
PLAYORDER=
